<?xml version="1.0" encoding="iso-8859-1"?>
<!-- Uploaded to: SVG Repo, www.svgrepo.com, Generator: SVG Repo Mixer Tools -->
<svg fill="#000000" height="800px" width="800px" version="1.1" id="Layer_1" xmlns="http://www.w3.org/2000/svg" xmlns:xlink="http://www.w3.org/1999/xlink" 
	 viewBox="0 0 512.003 512.003" xml:space="preserve">
<g>
	<g>
		<path d="M117.973,219.931c-2.934,2.056-4.269,5.894-3.241,9.327c1.059,3.54,4.402,6.042,8.104,6.042
			c3.773,0,7.146-2.58,8.151-6.21C133.063,221.586,124.319,215.482,117.973,219.931z"/>
	</g>
</g>
<g>
	<g>
		<path d="M160.231,219.812c-2.936,1.941-4.374,5.681-3.505,9.09c0.948,3.721,4.363,6.398,8.209,6.398c3.919,0,7.369-2.79,8.245-6.6
			C174.869,221.358,166.42,215.718,160.231,219.812z"/>
	</g>
</g>
<g>
	<g>
		<path d="M297.089,74.718c-3.154-2.104-7.485-1.811-10.313,0.719c-5.671,5.072-2.012,14.782,5.62,14.782
			c3.957,0,7.459-2.859,8.277-6.719C301.38,80.165,299.924,76.608,297.089,74.718z"/>
	</g>
</g>
<g>
	<g>
		<path d="M452.613,207.209c0-14.463-5.633-28.061-15.86-38.288c-7.413-7.413-16.599-12.395-26.598-14.586
			c3.459-36.685-0.882-72.454-1.456-76.911c-0.178-20.606-8.272-39.953-22.863-54.545c-3.305-3.304-8.661-3.304-11.966,0
			s-3.304,8.661,0,11.964c9.688,9.687,15.71,22.054,17.412,35.424c-26.731,1.154-51.616-5.744-74.073-20.608
			c-11.046-7.311-19.031-15.028-23.735-20.143c10.305-7.891,23.174-12.595,37.126-12.595c8.263,0,16.277,1.617,23.815,4.806
			c4.304,1.82,9.268-0.193,11.088-4.497c1.821-4.304-0.193-9.267-4.495-11.088C351.372,2.067,341.142,0,330.601,0
			c-43.072,0-78.114,35.042-78.114,78.115c0,30.465,17.54,56.894,43.043,69.766c-18.292,10.795-30.597,30.7-30.597,53.436v4.129
			l-0.05-0.011c-11.349,48.178-31.61,120.307-41.13,129.827c-0.482,0.482-0.591,0.466-0.998,0.411
			c-6.917-0.926-21.184-18.352-30.325-34.212c-3.944-9.327-10.505-17.283-18.75-22.961c19.159-10.552,32.173-30.941,32.173-54.316
			c0-34.169-27.8-61.969-61.97-61.969c-34.17,0-61.968,27.799-61.968,61.969c0,23.375,13.014,43.763,32.172,54.316
			c-12.977,8.936-21.765,23.529-22.775,40.193c-7.508,9.33-31.922,44.072-31.922,101.336c0,4.672,3.787,8.461,8.461,8.461
			s8.461-3.788,8.461-8.461c0-29.389,7.205-52.265,14.505-67.909c-0.778,20.93-2.725,41.886-5.819,62.537l-1.142,7.619
			c-0.364,2.436,0.35,4.909,1.956,6.775c1.607,1.866,3.948,2.939,6.411,2.939h18.038c6.993,35.439,16.282,59.142,27.645,70.507
			c0.174,0.174,0.357,0.334,0.542,0.491c0.024,0.02,0.045,0.043,0.069,0.062c0.288,0.237,0.591,0.446,0.904,0.64
			c0.076,0.047,0.151,0.091,0.228,0.135c0.314,0.182,0.635,0.349,0.967,0.487c0.013,0.006,0.025,0.014,0.038,0.019
			c0.005,0.001,0.009,0.002,0.012,0.005c0.162,0.067,0.329,0.121,0.495,0.177c0.099,0.034,0.196,0.074,0.296,0.105
			c0.038,0.011,0.078,0.018,0.117,0.029c0.761,0.217,1.54,0.328,2.315,0.328c0.001,0,0.001,0,0.001,0c0.001,0,0.002,0,0.003,0
			c0.729,0,1.461-0.104,2.181-0.296c0.085-0.023,0.17-0.038,0.254-0.063c0.088-0.026,0.174-0.063,0.261-0.093
			c0.177-0.06,0.355-0.117,0.529-0.188c0.005-0.001,0.008-0.002,0.012-0.005c0.012-0.006,0.024-0.014,0.037-0.019
			c0.332-0.139,0.652-0.306,0.966-0.487c0.078-0.045,0.156-0.09,0.231-0.138c0.311-0.194,0.614-0.403,0.9-0.638
			c0.025-0.021,0.047-0.045,0.072-0.065c0.185-0.156,0.367-0.316,0.54-0.488c11.355-11.365,20.64-35.069,27.632-70.505h18.038
			c2.463,0,4.803-1.073,6.411-2.939c1.608-1.866,2.322-4.34,1.956-6.775l-1.142-7.617c-0.578-3.861-1.122-7.785-1.622-11.661
			c-0.594-4.634-4.833-7.902-9.471-7.312c-4.633,0.596-7.908,4.836-7.311,9.471c0.423,3.292,0.879,6.617,1.36,9.914H170.31
			c-0.005,0-0.009,0-0.014,0h-68.254c4.037-27.656,6.085-55.823,6.085-83.755v-9.404c0-6.759,1.886-13.087,5.159-18.485
			c8.516,7.072,19.232,10.999,30.604,10.999c11.367,0,22.08-3.927,30.595-10.999c3.273,5.398,5.159,11.725,5.159,18.485v9.404
			c0,16.442,0.712,33.08,2.114,49.452c0.399,4.657,4.506,8.109,9.152,7.708c4.656-0.399,8.106-4.497,7.707-9.152
			c-1.219-14.23-1.896-28.663-2.025-42.984c8.699,9.828,16.569,15.12,23.913,16.106c0.838,0.113,1.668,0.168,2.491,0.168
			c4.759,0,9.206-1.866,12.726-5.384c4.785-4.785,13.009-17.774,29.213-74.84v14.287l-9.461,100.014
			c-0.224,2.372,0.562,4.729,2.165,6.491c1.604,1.762,3.876,2.767,6.259,2.767h24.732c2.707,23.828,12.169,90.669,35.076,113.577
			c1.62,1.619,3.784,2.478,5.986,2.478c1.09,0,2.188-0.211,3.235-0.644c1.048-0.434,1.959-1.077,2.731-1.849l0.015,0.015
			c22.908-22.908,32.369-89.75,35.076-113.577h27.334c2.383,0,4.656-1.005,6.259-2.767c1.604-1.763,2.389-4.12,2.165-6.492
			l-3.397-35.828c-0.441-4.652-4.565-8.06-9.222-7.624c-4.651,0.441-8.065,4.569-7.625,9.221l2.519,26.568H273.195l7.898-83.489
			h31.877c10.359,9.628,23.594,14.454,36.836,14.454c11.06,0,22.113-3.368,31.493-10.084l2.346,24.776
			c0.415,4.38,4.101,7.663,8.413,7.663c0.266,0,0.537-0.012,0.808-0.038c4.652-0.441,8.066-4.569,7.626-9.221l-3.441-36.326
			c10.93,5.494,19.955,8.245,27.174,8.244c5.805,0,10.449-1.773,13.985-5.31c13.876-13.876,6.771-37.755,2.475-48.59
			C448.408,231.522,452.613,219.691,452.613,207.209z M152.351,431.99h7.885c-2.386,11.558-5.035,21.77-7.885,30.398V431.99z
			 M135.43,431.99v30.425c-2.855-8.634-5.508-18.856-7.897-30.425H135.43z M182.856,201.631
			c-7.365-1.391-16.379-4.316-22.669-10.471c-3.141-3.073-5.299-6.705-6.548-10.949
			C166.095,182.972,176.623,190.903,182.856,201.631z M134.131,180.211c-1.25,4.243-3.408,7.875-6.549,10.949
			c-6.291,6.156-15.305,9.082-22.67,10.474C111.144,190.904,121.673,182.973,134.131,180.211z M98.837,224.183
			c0-1.584,0.085-3.147,0.245-4.689c9.987-0.88,27.931-4.159,40.261-16.169c1.676-1.632,3.187-3.365,4.542-5.191
			c1.354,1.825,2.865,3.558,4.542,5.191c12.331,12.01,30.277,15.289,40.263,16.169c0.16,1.542,0.245,3.106,0.245,4.689
			c0,24.839-20.208,45.048-45.049,45.048C119.046,269.231,98.837,249.022,98.837,224.183z M143.889,297.504
			c-6.82,0-13.274-2.184-18.572-6.142c5.416-3.304,11.773-5.209,18.567-5.209s13.152,1.905,18.567,5.209
			C157.155,295.32,150.704,297.504,143.889,297.504z M338.148,395.944h15.523c-1.086,8.911-3.08,23.273-6.188,38.639
			c-2.773,13.708-5.927,25.668-9.336,35.555V395.944z M321.228,395.944v74.199c-3.411-9.886-6.564-21.85-9.337-35.56
			c-3.108-15.366-5.101-29.729-6.186-38.639H321.228z M394.536,122.913c0.047,9.6-0.282,20.01-1.28,30.396
			c-5.172,0.491-10.185,1.717-14.928,3.615c-3.702-3.615-7.815-6.71-12.223-9.266C377.476,141.83,387.235,133.301,394.536,122.913z
			 M393.155,204.781c-2.857,2.856-6.665,4.43-10.721,4.43s-7.864-1.574-10.719-4.43c-5.911-5.91-5.911-15.528,0-21.439
			c2.855-2.856,6.662-4.43,10.719-4.43s7.864,1.574,10.72,4.43C399.065,189.253,399.065,198.871,393.155,204.781z M269.408,78.115
			c0-13.69,4.52-26.345,12.145-36.55c5.401,5.806,13.994,13.964,25.696,21.794c7.943,5.314,18.002,10.894,30.027,15.332
			c-0.774,1.996-0.822,4.264,0.027,6.305c1.301,3.123,4.421,5.223,7.807,5.223c3.962,0,7.413-2.845,8.265-6.668
			c11.298,2.679,23.907,4.163,37.737,3.669c-4.409,29.425-29.841,52.066-60.47,52.088h-0.087
			C296.836,139.283,269.408,111.842,269.408,78.115z M300.667,278.612h-18.812v-77.295c0-24.863,20.222-45.089,45.078-45.089h3.625
			c0.015,0,0.029,0.001,0.044,0.001c0.015,0,0.029-0.001,0.044-0.001h4.398c10.366,0,20.241,3.539,28.167,9.898
			c-1.038,0.893-2.056,1.816-3.035,2.794l-48.659,48.657C295.042,234.054,291.426,258.594,300.667,278.612z M426.245,277.73
			c-0.631,0.633-5.55,1.313-17.574-4.15l18.785-18.786C429.821,263.342,430.821,273.154,426.245,277.73z M424.785,233.531
			L393.117,265.2c-11.046-6.718-19.942-13.505-20.046-13.586c-3.706-2.84-9.017-2.139-11.861,1.57
			c-2.843,3.708-2.14,9.017,1.567,11.859c0.411,0.315,7.954,6.076,18.049,12.447l-3.497,3.497c-0.073,0.07-0.144,0.141-0.214,0.214
			l-0.987,0.987c-14.513,14.514-38.131,14.514-52.644,0c-14.515-14.515-14.515-38.132,0-52.646l27.808-27.808
			c1.347,5.505,4.165,10.72,8.456,15.011c6.052,6.052,14.109,9.386,22.685,9.386s16.632-3.333,22.686-9.386
			c12.508-12.508,12.508-32.861-0.001-45.369c-0.333-0.333-0.675-0.655-1.021-0.971c7.804,1.178,15.005,4.794,20.689,10.48
			c7.031,7.031,10.904,16.38,10.904,26.323C435.689,217.153,431.817,226.501,424.785,233.531z"/>
	</g>
</g>
</svg>