<?xml version="1.0" encoding="iso-8859-1"?>
<!-- Uploaded to: SVG Repo, www.svgrepo.com, Generator: SVG Repo Mixer Tools -->
<svg height="800px" width="800px" version="1.1" id="Layer_1" xmlns="http://www.w3.org/2000/svg" xmlns:xlink="http://www.w3.org/1999/xlink" 
	 viewBox="0 0 512 512" xml:space="preserve">
<path style="fill:#00ABE9;" d="M512,321.305H7.639c-23.107-97.88,13.59-143.982,13.59-143.982
	c57.422,23.53,99.005,15.36,125.996,1.658c26.045-13.212,38.5-31.566,38.5-31.566s5.877,9.706,18.232,23.029
	c3.428,3.695,7.368,7.669,11.809,11.809c4.341,4.018,9.171,8.192,14.503,12.377c4.241,3.328,8.782,6.667,13.657,9.962
	c5.287,3.562,10.952,7.068,16.996,10.44c4.953,2.771,10.173,5.443,15.649,7.969c5.699,2.649,11.687,5.142,17.964,7.435
	c5.699,2.104,11.653,4.029,17.842,5.766c16.339,4.586,34.371,7.802,54.16,8.971C491.387,252.575,512,321.305,512,321.305z"/>
<polygon style="fill:#4B494F;" points="7.636,321.305 7.636,364.588 124.658,364.588 124.658,321.305 220.379,364.588 
	511.995,364.588 511.995,321.305 "/>
<path style="fill:#F5F5F5;" d="M124.661,321.302H7.637c-23.107-97.88,13.59-143.982,13.59-143.982l8.314,54.261
	c2.872,16.406,17.118,28.382,33.77,28.382c16.94,0,32.278,6.867,43.375,17.964C117.794,289.024,124.661,304.363,124.661,321.302z"/>
<path style="fill:#0081D1;" d="M511.998,321.302h-60.104c-17.441-31.287-62.987-33.313-142.09-42.418
	c-96.177-11.075-162.581-99.906-162.581-99.906c26.045-13.212,38.5-31.566,38.5-31.566s54.695,90.29,180.813,97.758
	C491.385,252.572,511.998,321.302,511.998,321.302z"/>
<g>
	<path style="fill:#F5F5F5;" d="M243.925,204.592l-46.414,46.414c-1.636,1.636-3.773,2.449-5.91,2.449
		c-2.137,0-4.274-0.813-5.899-2.449c-3.261-3.261-3.261-8.548,0-11.809l44.566-44.566
		C234.509,197.959,239.05,201.298,243.925,204.592z"/>
	<path style="fill:#F5F5F5;" d="M276.571,223.002l-46.113,46.113c-1.636,1.625-3.773,2.449-5.91,2.449s-4.274-0.824-5.899-2.449
		c-3.261-3.261-3.261-8.548,0-11.809l42.273-42.273C265.875,217.804,271.095,220.475,276.571,223.002z"/>
	<path style="fill:#F5F5F5;" d="M312.377,236.203l-46.814,46.814c-1.625,1.625-3.762,2.449-5.899,2.449s-4.274-0.824-5.899-2.449
		c-3.261-3.261-3.261-8.548,0-11.809l40.771-40.771C300.234,232.541,306.189,234.466,312.377,236.203z"/>
	<path style="fill:#F5F5F5;" d="M215.766,182.254l-45.79,45.79c-1.625,1.636-3.762,2.449-5.899,2.449s-4.274-0.813-5.911-2.449
		c-3.25-3.261-3.25-8.548,0-11.809l45.79-45.79C207.385,174.14,211.325,178.113,215.766,182.254z"/>
</g>
</svg>